<svg width="186" height="148" version="1.1" xmlns="http://www.w3.org/2000/svg" desc="Created with imagetracer.js version 1.2.1" ><path fill="rgb(251,169,54)" stroke="rgb(251,169,54)" stroke-width="1" opacity="0.3764705882352941" d="M 154.5 0 L 64.5 91 L 29 56.5 L 63.5 90 L 154.5 0 Z " /><path fill="rgb(251,169,54)" stroke="rgb(251,169,54)" stroke-width="1" opacity="0.3764705882352941" d="M 156.5 0 L 185 29.5 L 66 147.5 L 184 28.5 L 156.5 0 Z " /><path fill="rgb(251,169,54)" stroke="rgb(251,169,54)" stroke-width="1" opacity="0.3764705882352941" d="M 27.5 56 L 0.5 84 L 27.5 56 Z " /><path fill="rgb(251,169,54)" stroke="rgb(251,169,54)" stroke-width="1" opacity="0.3764705882352941" d="M 0.5 85 L 62.5 148 L 0.5 85 Z " /><path fill="rgb(0,0,0)" stroke="rgb(0,0,0)" stroke-width="1" opacity="0" d="M 0 0 L 154 0.5 L 63.5 90 L 29.5 56 L 27.5 56 L 0 82.5 L 0 0 Z " /><path fill="rgb(0,0,0)" stroke="rgb(0,0,0)" stroke-width="1" opacity="0" d="M 157.5 0 L 185.5 0 L 186 0.5 L 186 148 L 67 147.5 L 185 28.5 L 157.5 0 Z " /><path fill="rgb(0,0,0)" stroke="rgb(0,0,0)" stroke-width="1" opacity="0" d="M 0.5 86 L 61.5 148 L 0 148 L 0.5 86 Z " /><path fill="rgb(250,168,51)" stroke="rgb(250,168,51)" stroke-width="1" opacity="0.996078431372549" d="M 140.5 15 L 85.5 71 L 140.5 15 Z " /><path fill="rgb(250,168,51)" stroke="rgb(250,168,51)" stroke-width="1" opacity="0.996078431372549" d="M 29.5 85 L 63.5 120 L 78.5 106 L 93 120.5 L 65.5 148 L 63.5 148 L 15 99.5 L 29.5 85 Z " /><path fill="rgb(243,119,56)" stroke="rgb(243,119,56)" stroke-width="1" opacity="0.9450980392156862" d="M 155.5 0 L 184 29.5 L 146 66.5 L 133 51.5 L 155 28.5 L 141 14.5 L 155.5 0 Z " /><path fill="rgb(254,200,50)" stroke="rgb(254,200,50)" stroke-width="1" opacity="0.9803921568627451" d="M 28.5 56 L 78 106.5 L 65.5 119 L 63.5 119 L 28.5 85 L 14.5 99 L 0 84.5 L 28.5 56 Z " /><path fill="rgb(251,170,51)" stroke="rgb(251,170,51)" stroke-width="1" opacity="1" d="M 140.5 16 L 154 28.5 L 78.5 106 L 64 91.5 L 84.5 71 L 140.5 16 Z " /><path fill="rgb(251,170,51)" stroke="rgb(251,170,51)" stroke-width="1" opacity="1" d="M 28.5 85 L 15.5 99 L 28.5 85 Z " /><path fill="rgb(251,170,51)" stroke="rgb(251,170,51)" stroke-width="1" opacity="1" d="M 30.5 86 L 65 119.5 L 63.5 120 L 30.5 86 Z " /><path fill="rgb(246,147,56)" stroke="rgb(246,147,56)" stroke-width="1" opacity="0.9647058823529412" d="M 141.5 15 L 141.5 16 L 141.5 15 Z " /><path fill="rgb(246,147,56)" stroke="rgb(246,147,56)" stroke-width="1" opacity="0.9647058823529412" d="M 132.5 52 L 146 65.5 L 146 67.5 L 93.5 120 L 79 105.5 L 132.5 52 Z " /><path fill="rgb(248,162,52)" stroke="rgb(248,162,52)" stroke-width="1" opacity="0.996078431372549" d="M 142.5 16 L 155 29.5 L 79 104.5 L 154 28.5 L 142.5 16 Z " /><path fill="rgb(248,162,52)" stroke="rgb(248,162,52)" stroke-width="1" opacity="0.996078431372549" d="M 79.5 106 L 92.5 120 L 79.5 106 Z " /></svg>