<?xml version="1.0" encoding="utf-8"?>
<!-- Svg Vector Icons : http://www.onlinewebfonts.com/icon -->
<!DOCTYPE svg PUBLIC "-//W3C//DTD SVG 1.1//EN" "http://www.w3.org/Graphics/SVG/1.1/DTD/svg11.dtd">
<svg version="1.1" xmlns="http://www.w3.org/2000/svg" xmlns:xlink="http://www.w3.org/1999/xlink" x="0px" y="0px" width="18pt" height="18pt" viewBox="0 0 1000 1000" enable-background="new 0 0 1000 1000" xml:space="preserve">
<metadata> Svg Vector Icons : http://www.onlinewebfonts.com/icon </metadata>
<g><path d="M10,157.5c2.6-9.3,4-19.1,8.1-27.7c16.3-34.3,43.9-51.9,82-52c56.3-0.2,112.7-0.1,169-0.1c86.9,0,173.9,0,260.8,0c2.7,0,5.5,0,8.7,0c0,23.2,0,46,0,69.9c-2.8,0-5.7,0-8.5,0c-142,0-284,0-426,0c-3.6,0-7.2,0.1-10.7,0.9c-7.1,1.6-12,7.6-12.7,14.8c-0.2,2.5-0.2,5.1-0.2,7.6c0,207,0,414,0,620.9c0,1.9,0,3.8,0.1,5.7c0.5,10.2,7,16.9,17.1,17.4c2.5,0.1,5.1,0.1,7.6,0.1c121.1,0,242.2,0,363.3-0.1c5.5,0,8.2,1.6,10.4,6.6c10.3,22.8,24.1,43.4,40.8,63.3c-2.4,0.3-3.9,0.6-5.4,0.6c-138.2,0-276.4,0.1-414.6,0c-46.1-0.1-81.5-30.7-88.6-76c-0.3-1.6-0.8-3.2-1.2-4.8C10,588.8,10,373.2,10,157.5z"/><path d="M729.2,956.4c-13.6-1.7-27.3-2.6-40.7-5.2c-44.8-8.6-84.6-27.9-119-57.9c-35.5-30.9-60.7-68.8-75.1-113.5c-15.1-46.7-17.1-94.1-3.9-141.5c23.5-84.6,76.2-144,158.6-174.1c85-31.1,165.4-18.4,238.3,35c56.1,41,88.2,97.4,99.6,165.8c1.3,7.6,2,15.4,3,23c0,9.3,0,18.6,0,27.9c-1.1,8.3-1.9,16.7-3.3,24.9c-8.7,52.6-31,98.5-68.1,137c-37.3,38.7-82.6,63.3-135.5,73.5c-13.6,2.6-27.5,3.5-41.3,5.2C737.6,956.4,733.4,956.4,729.2,956.4z M930.5,702c-0.1-106.9-87.5-194.3-194.6-194.6c-106.7-0.3-194.3,87.1-194.5,194.5c-0.2,106.4,85.3,194.7,194.7,194.8C843.4,896.8,930.6,808.7,930.5,702z"/><path d="M754.5,43.6c3.7,0.7,7.4,1.4,11,2.2c13.2,2.9,24.2,9.5,33.5,19.2c6.5,6.7,13.2,13.1,19.7,19.7c26.5,27,26.4,65.2-0.1,92c-13.8,13.9-27.5,27.9-40.9,41.4c-38-38.1-75.5-75.6-113.7-113.9c16.5-15.7,33.3-32.4,51-48.3c7.9-7.1,18.4-10,29.1-11.1c1.4-0.2,2.8-0.8,4.1-1.2C750.3,43.6,752.4,43.6,754.5,43.6z"/><path d="M432,561.5c-37.7-38.5-74.9-76.5-112.7-115.1c104.6-103.7,210.1-208.3,315.3-312.6c37.7,37.8,75.1,75.2,113.2,113.3C643.2,351.3,538,456,432,561.5z"/><path d="M258.2,617.3c13.2-48,26.2-95,39.3-142.4c35.4,36.1,70.4,71.9,105.1,107.4C356.3,593.5,307.7,605.3,258.2,617.3z"/><path d="M755.2,374.4c0,15.8,0,31.3,0,46.7c-23.2,1-46.2,1.9-69.6,2.9c0-16.1,0-32.6,0-49.6C708.8,374.4,731.8,374.4,755.2,374.4z"/><path d="M726,785.8c-5.6-2.9-12.5-4.5-16.7-8.8c-21-21-41.4-42.7-61.9-64.2c-2.2-2.3-3.9-5-5.7-7.6c-5.4-8.1-4.8-16.1,2.1-23c6-6,12.1-11.8,18.3-17.5c10.2-9.5,18.7-9.1,28.3,1.4c11.3,12.3,22.4,24.7,33.7,36.9c6.5,7.1,12.6,7.7,20.6,2.1c2.7-1.9,5.3-4.2,7.7-6.5c21.9-21.4,43.6-42.9,65.6-64.2c4.8-4.7,10.1-8.9,15.7-12.7c5.8-4,11.6-3.7,16.9,0.9c5.7,5,10.9,10.5,16.1,16.1c3.5,3.8,4,8.5,1.4,12.9c-3.2,5.4-6.4,11.1-10.8,15.5c-36.9,36.5-74.2,72.6-111.2,109c-5.5,5.4-11.7,8.1-19.2,8C726.6,784.7,726.3,785.2,726,785.8z"/></g>
</svg>
