<?xml version="1.0" encoding="UTF-8"?>
<svg xmlns="http://www.w3.org/2000/svg" xmlns:xlink="http://www.w3.org/1999/xlink" width="30pt" height="24pt" viewBox="0 0 30 24" version="1.1">
<defs>
<filter id="alpha" filterUnits="objectBoundingBox" x="0%" y="0%" width="100%" height="100%">
  <feColorMatrix type="matrix" in="SourceGraphic" values="0 0 0 0 1 0 0 0 0 1 0 0 0 0 1 0 0 0 1 0"/>
</filter>
<mask id="mask0">
  <g filter="url(#alpha)">
<rect x="0" y="0" width="30" height="24" style="fill:rgb(0%,0%,0%);fill-opacity:0.376471;stroke:none;"/>
  </g>
</mask>
<clipPath id="clip1">
  <rect width="30" height="24"/>
</clipPath>
<g id="surface6" clip-path="url(#clip1)">
<path style="fill-rule:nonzero;fill:rgb(98.431373%,66.27451%,21.176471%);fill-opacity:1;stroke-width:1;stroke-linecap:butt;stroke-linejoin:miter;stroke:rgb(98.431373%,66.27451%,21.176471%);stroke-opacity:1;stroke-miterlimit:4;" d="M 154.491406 0 L 64.494531 91.00651 L 28.989844 56.511719 L 63.501562 89.994792 Z M 154.491406 0 " transform="matrix(0.16129,0,0,0.162162,0,0)"/>
</g>
<mask id="mask1">
  <g filter="url(#alpha)">
<rect x="0" y="0" width="30" height="24" style="fill:rgb(0%,0%,0%);fill-opacity:0.376471;stroke:none;"/>
  </g>
</mask>
<clipPath id="clip2">
  <rect width="30" height="24"/>
</clipPath>
<g id="surface9" clip-path="url(#clip2)">
<path style="fill-rule:nonzero;fill:rgb(98.431373%,66.27451%,21.176471%);fill-opacity:1;stroke-width:1;stroke-linecap:butt;stroke-linejoin:miter;stroke:rgb(98.431373%,66.27451%,21.176471%);stroke-opacity:1;stroke-miterlimit:4;" d="M 156.501563 0 L 185.007031 29.508464 L 65.996094 147.494141 L 183.989844 28.496745 Z M 156.501563 0 " transform="matrix(0.16129,0,0,0.162162,0,0)"/>
</g>
<mask id="mask2">
  <g filter="url(#alpha)">
<rect x="0" y="0" width="30" height="24" style="fill:rgb(0%,0%,0%);fill-opacity:0.376471;stroke:none;"/>
  </g>
</mask>
<clipPath id="clip3">
  <rect width="30" height="24"/>
</clipPath>
<g id="surface12" clip-path="url(#clip3)">
<path style="fill-rule:nonzero;fill:rgb(98.431373%,66.27451%,21.176471%);fill-opacity:1;stroke-width:1;stroke-linecap:butt;stroke-linejoin:miter;stroke:rgb(98.431373%,66.27451%,21.176471%);stroke-opacity:1;stroke-miterlimit:4;" d="M 27.488281 56.005859 L 0.508594 83.996745 Z M 27.488281 56.005859 " transform="matrix(0.16129,0,0,0.162162,0,0)"/>
</g>
<mask id="mask3">
  <g filter="url(#alpha)">
<rect x="0" y="0" width="30" height="24" style="fill:rgb(0%,0%,0%);fill-opacity:0.376471;stroke:none;"/>
  </g>
</mask>
<clipPath id="clip4">
  <rect width="30" height="24"/>
</clipPath>
<g id="surface15" clip-path="url(#clip4)">
<path style="fill-rule:nonzero;fill:rgb(98.431373%,66.27451%,21.176471%);fill-opacity:1;stroke-width:1;stroke-linecap:butt;stroke-linejoin:miter;stroke:rgb(98.431373%,66.27451%,21.176471%);stroke-opacity:1;stroke-miterlimit:4;" d="M 0.508594 85.008464 L 62.508594 148 Z M 0.508594 85.008464 " transform="matrix(0.16129,0,0,0.162162,0,0)"/>
</g>
<mask id="mask4">
  <g filter="url(#alpha)">
<rect x="0" y="0" width="30" height="24" style="fill:rgb(0%,0%,0%);fill-opacity:0.996078;stroke:none;"/>
  </g>
</mask>
<clipPath id="clip5">
  <rect width="30" height="24"/>
</clipPath>
<g id="surface21" clip-path="url(#clip5)">
<path style="fill-rule:nonzero;fill:rgb(98.039216%,65.882353%,20%);fill-opacity:1;stroke-width:1;stroke-linecap:butt;stroke-linejoin:miter;stroke:rgb(98.039216%,65.882353%,20%);stroke-opacity:1;stroke-miterlimit:4;" d="M 140.492969 15.007161 L 85.492188 70.988932 Z M 140.492969 15.007161 " transform="matrix(0.16129,0,0,0.162162,0,0)"/>
</g>
<mask id="mask5">
  <g filter="url(#alpha)">
<rect x="0" y="0" width="30" height="24" style="fill:rgb(0%,0%,0%);fill-opacity:0.996078;stroke:none;"/>
  </g>
</mask>
<clipPath id="clip6">
  <rect width="30" height="24"/>
</clipPath>
<g id="surface24" clip-path="url(#clip6)">
<path style="fill-rule:nonzero;fill:rgb(98.039216%,65.882353%,20%);fill-opacity:1;stroke-width:1;stroke-linecap:butt;stroke-linejoin:miter;stroke:rgb(98.039216%,65.882353%,20%);stroke-opacity:1;stroke-miterlimit:4;" d="M 29.498438 85.008464 L 63.501562 120.009115 L 78.492969 105.989583 L 93 120.490885 L 65.511719 148 L 63.501562 148 L 14.991406 99.509766 Z M 29.498438 85.008464 " transform="matrix(0.16129,0,0,0.162162,0,0)"/>
</g>
<mask id="mask6">
  <g filter="url(#alpha)">
<rect x="0" y="0" width="30" height="24" style="fill:rgb(0%,0%,0%);fill-opacity:0.945098;stroke:none;"/>
  </g>
</mask>
<clipPath id="clip7">
  <rect width="30" height="24"/>
</clipPath>
<g id="surface27" clip-path="url(#clip7)">
<path style="fill-rule:nonzero;fill:rgb(95.294118%,46.666667%,21.960784%);fill-opacity:1;stroke-width:1;stroke-linecap:butt;stroke-linejoin:miter;stroke:rgb(95.294118%,46.666667%,21.960784%);stroke-opacity:1;stroke-miterlimit:4;" d="M 155.508594 0 L 183.989844 29.508464 L 145.990625 66.508464 L 133.009375 51.501302 L 155 28.496745 L 141.001563 14.501302 Z M 155.508594 0 " transform="matrix(0.16129,0,0,0.162162,0,0)"/>
</g>
<mask id="mask7">
  <g filter="url(#alpha)">
<rect x="0" y="0" width="30" height="24" style="fill:rgb(0%,0%,0%);fill-opacity:0.980392;stroke:none;"/>
  </g>
</mask>
<clipPath id="clip8">
  <rect width="30" height="24"/>
</clipPath>
<g id="surface30" clip-path="url(#clip8)">
<path style="fill-rule:nonzero;fill:rgb(99.607843%,78.431373%,19.607843%);fill-opacity:1;stroke-width:1;stroke-linecap:butt;stroke-linejoin:miter;stroke:rgb(99.607843%,78.431373%,19.607843%);stroke-opacity:1;stroke-miterlimit:4;" d="M 28.505469 56.005859 L 78.008594 106.495443 L 65.511719 118.997396 L 63.501562 118.997396 L 28.505469 85.008464 L 14.507031 99.003906 L 0 84.502604 Z M 28.505469 56.005859 " transform="matrix(0.16129,0,0,0.162162,0,0)"/>
</g>
<mask id="mask8">
  <g filter="url(#alpha)">
<rect x="0" y="0" width="30" height="24" style="fill:rgb(0%,0%,0%);fill-opacity:0.964706;stroke:none;"/>
  </g>
</mask>
<clipPath id="clip9">
  <rect width="30" height="24"/>
</clipPath>
<g id="surface33" clip-path="url(#clip9)">
<path style="fill:none;stroke-width:1;stroke-linecap:butt;stroke-linejoin:miter;stroke:rgb(96.470588%,57.647059%,21.960784%);stroke-opacity:1;stroke-miterlimit:4;" d="M 141.510156 15.007161 L 141.510156 15.994792 Z M 141.510156 15.007161 " transform="matrix(0.16129,0,0,0.162162,0,0)"/>
</g>
<mask id="mask9">
  <g filter="url(#alpha)">
<rect x="0" y="0" width="30" height="24" style="fill:rgb(0%,0%,0%);fill-opacity:0.964706;stroke:none;"/>
  </g>
</mask>
<clipPath id="clip10">
  <rect width="30" height="24"/>
</clipPath>
<g id="surface36" clip-path="url(#clip10)">
<path style="fill-rule:nonzero;fill:rgb(96.470588%,57.647059%,21.960784%);fill-opacity:1;stroke-width:1;stroke-linecap:butt;stroke-linejoin:miter;stroke:rgb(96.470588%,57.647059%,21.960784%);stroke-opacity:1;stroke-miterlimit:4;" d="M 132.500781 52.007161 L 145.990625 65.496745 L 145.990625 67.496094 L 93.508594 120.009115 L 79.001563 105.507812 Z M 132.500781 52.007161 " transform="matrix(0.16129,0,0,0.162162,0,0)"/>
</g>
<mask id="mask10">
  <g filter="url(#alpha)">
<rect x="0" y="0" width="30" height="24" style="fill:rgb(0%,0%,0%);fill-opacity:0.996078;stroke:none;"/>
  </g>
</mask>
<clipPath id="clip11">
  <rect width="30" height="24"/>
</clipPath>
<g id="surface39" clip-path="url(#clip11)">
<path style="fill-rule:nonzero;fill:rgb(97.254902%,63.529412%,20.392157%);fill-opacity:1;stroke-width:1;stroke-linecap:butt;stroke-linejoin:miter;stroke:rgb(97.254902%,63.529412%,20.392157%);stroke-opacity:1;stroke-miterlimit:4;" d="M 142.503125 15.994792 L 155 29.508464 L 79.001563 104.496094 L 154.007031 28.496745 Z M 142.503125 15.994792 " transform="matrix(0.16129,0,0,0.162162,0,0)"/>
</g>
<mask id="mask11">
  <g filter="url(#alpha)">
<rect x="0" y="0" width="30" height="24" style="fill:rgb(0%,0%,0%);fill-opacity:0.996078;stroke:none;"/>
  </g>
</mask>
<clipPath id="clip12">
  <rect width="30" height="24"/>
</clipPath>
<g id="surface42" clip-path="url(#clip12)">
<path style="fill-rule:nonzero;fill:rgb(97.254902%,63.529412%,20.392157%);fill-opacity:1;stroke-width:1;stroke-linecap:butt;stroke-linejoin:miter;stroke:rgb(97.254902%,63.529412%,20.392157%);stroke-opacity:1;stroke-miterlimit:4;" d="M 79.510156 105.989583 L 92.491406 120.009115 Z M 79.510156 105.989583 " transform="matrix(0.16129,0,0,0.162162,0,0)"/>
</g>
</defs>
<g id="surface1">
<use xlink:href="#surface6" mask="url(#mask0)"/>
<use xlink:href="#surface9" mask="url(#mask1)"/>
<use xlink:href="#surface12" mask="url(#mask2)"/>
<use xlink:href="#surface15" mask="url(#mask3)"/>
<use xlink:href="#surface21" mask="url(#mask4)"/>
<use xlink:href="#surface24" mask="url(#mask5)"/>
<use xlink:href="#surface27" mask="url(#mask6)"/>
<use xlink:href="#surface30" mask="url(#mask7)"/>
<path style="fill-rule:nonzero;fill:rgb(98.431373%,66.666667%,20%);fill-opacity:1;stroke-width:1;stroke-linecap:butt;stroke-linejoin:miter;stroke:rgb(98.431373%,66.666667%,20%);stroke-opacity:1;stroke-miterlimit:4;" d="M 140.492969 15.994792 L 154.007031 28.496745 L 78.492969 105.989583 L 64.010156 91.488281 L 84.499219 70.988932 Z M 140.492969 15.994792 " transform="matrix(0.16129,0,0,0.162162,0,0)"/>
<path style="fill-rule:nonzero;fill:rgb(98.431373%,66.666667%,20%);fill-opacity:1;stroke-width:1;stroke-linecap:butt;stroke-linejoin:miter;stroke:rgb(98.431373%,66.666667%,20%);stroke-opacity:1;stroke-miterlimit:4;" d="M 28.505469 85.008464 L 15.5 99.003906 Z M 28.505469 85.008464 " transform="matrix(0.16129,0,0,0.162162,0,0)"/>
<path style="fill-rule:nonzero;fill:rgb(98.431373%,66.666667%,20%);fill-opacity:1;stroke-width:1;stroke-linecap:butt;stroke-linejoin:miter;stroke:rgb(98.431373%,66.666667%,20%);stroke-opacity:1;stroke-miterlimit:4;" d="M 30.491406 85.996094 L 65.003125 119.503255 L 63.501562 120.009115 Z M 30.491406 85.996094 " transform="matrix(0.16129,0,0,0.162162,0,0)"/>
<use xlink:href="#surface33" mask="url(#mask8)"/>
<use xlink:href="#surface36" mask="url(#mask9)"/>
<use xlink:href="#surface39" mask="url(#mask10)"/>
<use xlink:href="#surface42" mask="url(#mask11)"/>
</g>
</svg>
