<?xml version="1.0" encoding="UTF-8"?>
<svg xmlns="http://www.w3.org/2000/svg" xmlns:xlink="http://www.w3.org/1999/xlink" width="18pt" height="18pt" viewBox="0 0 20 20" version="1.1">
<g id="surface1">
<path style="stroke:none;fill-rule:nonzero;fill:rgb(0%,0%,0%);fill-opacity:1;" d="M 8.25 12.75 L 3 12.75 C 2.171875 12.75 1.5 12.078125 1.5 11.25 L 1.5 2.25 C 1.5 1.421875 2.171875 0.75 3 0.75 L 12 0.75 L 12 2.25 L 3 2.25 L 3 11.25 L 8.25 11.25 L 8.25 9.75 L 11.25 12 L 8.25 14.25 L 8.25 12.75 M 14.25 15.75 L 14.25 5.25 L 6 5.25 L 6 9.75 L 4.5 9.75 L 4.5 5.25 C 4.5 4.421875 5.171875 3.75 6 3.75 L 14.25 3.75 C 15.078125 3.75 15.75 4.421875 15.75 5.25 L 15.75 15.75 C 15.75 16.578125 15.078125 17.25 14.25 17.25 L 6 17.25 C 5.171875 17.25 4.5 16.578125 4.5 15.75 L 4.5 14.25 L 6 14.25 L 6 15.75 Z M 14.25 15.75 "/>
</g>
</svg>
