<?xml version="1.0" encoding="UTF-8"?>
<svg xmlns="http://www.w3.org/2000/svg" xmlns:xlink="http://www.w3.org/1999/xlink" width="22pt" height="22pt" viewBox="0 0 22 22" version="1.1">
<g id="surface1">
<path style="stroke:none;fill-rule:nonzero;fill:rgb(0%,0%,0%);fill-opacity:1;" d="M 10.082031 15.582031 L 3.667969 15.582031 C 2.652344 15.582031 1.832031 14.761719 1.832031 13.75 L 1.832031 2.75 C 1.832031 1.738281 2.652344 0.917969 3.667969 0.917969 L 14.667969 0.917969 L 14.667969 2.75 L 3.667969 2.75 L 3.667969 13.75 L 10.082031 13.75 L 10.082031 11.917969 L 13.75 14.667969 L 10.082031 17.417969 L 10.082031 15.582031 M 17.417969 19.25 L 17.417969 6.417969 L 7.332031 6.417969 L 7.332031 11.917969 L 5.5 11.917969 L 5.5 6.417969 C 5.5 5.402344 6.320312 4.582031 7.332031 4.582031 L 17.417969 4.582031 C 18.429688 4.582031 19.25 5.402344 19.25 6.417969 L 19.25 19.25 C 19.25 20.261719 18.429688 21.082031 17.417969 21.082031 L 7.332031 21.082031 C 6.320312 21.082031 5.5 20.261719 5.5 19.25 L 5.5 17.417969 L 7.332031 17.417969 L 7.332031 19.25 Z M 17.417969 19.25 "/>
</g>
</svg>
